<?xml version="1.0" encoding="UTF-8"?>
<svg id="_图层_4" data-name="图层 4" xmlns="http://www.w3.org/2000/svg" viewBox="0 0 38.17 36.72">
  <defs>
    <style>
      .cls-1 {
        fill: #fff;
      }

      .cls-2 {
        fill: #231815;
      }

      .cls-3 {
        fill: none;
        stroke: #231815;
        stroke-linecap: round;
        stroke-linejoin: round;
        stroke-width: 0px;
      }
    </style>
  </defs>
  <path class="cls-1" d="m25.9,26.91c.08-.15.13-.13.05.32.08-.45.08-.44.16-.71-.05.32-.01.31,0,.33.02-.29.01-.37,0-.52-.07.29-.07.12-.07,0,0-.13,0-.22-.1-.02-.03.16-.11.62-.04.6Z"/>
  <path class="cls-1" d="m25.83,29.95l.03-.18c-.05-.05-.11-.11-.17-.19.05-.05.16.09.14.36Z"/>
  <path class="cls-2" d="m26.28,30.16c-.01.54.07.56.07.99-.02-.93.12-.61.19-.97l-.02-.71c-.09-.26-.21.38-.33.71.02,0,.05,0,.08-.01Z"/>
  <path class="cls-1" d="m26.4,30.31l.03-.58c-.03.22-.11.56-.03.58Z"/>
  <path class="cls-1" d="m26.28,28.02c-.05.12.04.2-.02.56.02-.2.04-.31.02-.56Z"/>
  <path class="cls-2" d="m26.65,28.33l-.16.9s.07,0,.1-.01l.05-.88Z"/>
  <path class="cls-2" d="m26.81,29.4c-.03.11-.11.07-.09-.26.14.12.1-.59.24-.53l-.04.41c.09.33.07-.9.23-.28-.01-.75-.21-.26-.17-.95-.08.46-.19.61-.29.75.05.07.05,0,.11,0-.06.23-.12.78-.2,1.12.1.41.11-.31.22-.26Z"/>
  <path class="cls-2" d="m27.23,28.15c.09-.26.24-.73.08-1.05-.2.06-.07.34-.04.62-.05.03-.14.26-.18-.04.04.04.05.45.14.47Z"/>
  <path class="cls-2" d="m27.6,27.05c-.03-.14-.07-.26-.11-.38v.15s-.13-.12-.13-.12c.03.05.22.39.12.68.13-.03.04-.23.13-.33Z"/>
  <path class="cls-2" d="m26.78,26.07c.11,0,.08-.1.05-.22-.02.13-.07.3-.02.43l-.02-.05s.05.25.11.56c-.05-.35.21-.44-.11-.72Z"/>
  <path class="cls-2" d="m26.72,26.2c-.02-.07-.04-.14-.07-.21.02.06.05.13.07.21Z"/>
  <polygon class="cls-2" points="27.83 26.12 27.63 26.51 27.72 26.45 27.83 26.12"/>
  <path class="cls-2" d="m27.12,26.2c.09-.19-.18,0-.12-.18,0-.06-.07.25,0,.36.05-.02-.05-.28.11-.18Z"/>
  <path class="cls-2" d="m27.92,25.85l-.06-.36.06.36Z"/>
  <path class="cls-2" d="m28.26,25.09l-.09-.1c.18-.28.15-.74.46-.89-.15.01-.24-.21-.37.05.06.06.03.16.12.17-.06.11-.15.05-.21.12.06.23-.12.51-.06.7,0-.08.03-.1.06-.15.09.39-.4.31-.12.56-.06-.15.21-.29.21-.46Z"/>
  <path class="cls-2" d="m27.49,24.9l-.12.26c-.12-.13.09-.33-.03-.42-.09,0-.21.25-.24.13.34.14-.09.37.34.35-.06.36-.24.05-.33.42l.15.16c.03-.44.21-.46.24-.9Z"/>
  <path class="cls-2" d="m27.86,23.87l.15-.1-.18.02c.15-.61.92-.77.93-1.16-.08-.52.37-.85.47-1.32-.07-.27-.15.19-.24.19-.25-.15.21-.18.02-.35-.19-.09-.35.41-.53.57-.02.18.04.2.14.28-.12.01-.21.18-.33.19.05.41-.3.51-.24.91-.18.07.05-.27,0-.16l-.05.19h.03c.08.3-.21.74-.36.88.09-.12.24-.17.24,0l-.21.08.15.41c-.09-.31.33-.51.03-.65Z"/>
  <path class="cls-2" d="m27.43,24.15c-.21.38.27.03.06.45l.12-.47-.18.02Z"/>
  <path class="cls-1" d="m28.44,22.35l.18-.16c-.28.04-.04.45-.18.16Z"/>
  <polygon class="cls-1" points="28.65 21.61 28.85 21.78 28.78 21.56 28.65 21.61"/>
  <path class="cls-2" d="m29.12,21.02c-.07-.18-.22-.03-.24.15.06-.15.18-.21.24-.15Z"/>
  <path class="cls-1" d="m29.88,20.04c-.1.34.14-.28.27.02-.08-.07-.16-.28-.27-.02Z"/>
  <path class="cls-2" d="m30.74,19.11c0,.14-.05.17-.11.17.03-.09.06-.15.11-.17Z"/>
  <path class="cls-2" d="m28.8,23.12s-.02.08-.04.12l.04-.12Z"/>
  <path class="cls-2" d="m28.82,23.04l-.03.08s.02-.05.03-.08Z"/>
  <path class="cls-2" d="m30.05,20.67h0s-.02.01-.03.02l.03-.02Z"/>
  <path class="cls-2" d="m26.09,31.38s-.04-.08-.05-.13l.05.12h0Z"/>
  <path class="cls-2" d="m26.08,30.06c.06-.18.05.54.09,1.11.02.11.06.11.1-.18-.04.18-.07.36-.11.54l-.07-.16c-.05-1.09.06-.25-.01-1.31Z"/>
  <path class="cls-2" d="m26.91,27.01s0-.01,0-.02c0-.03,0-.01,0,.02Z"/>
  <polygon class="cls-1" points="22.7 18.23 22.64 18.24 22.65 17.97 22.7 18.23"/>
  <path class="cls-1" d="m22.6,18.3v.46s-.71-2.51-.71-2.51l.11.06c.1-.06.52,2.1.6,1.99Z"/>
  <path class="cls-1" d="m22.73,18.39c.32.18.01.43.28.68-.17-.17-.35-.27-.33-.48l.06-.2Z"/>
  <path class="cls-3" d="m23.44,19.1c-.02.15.14.28.12.37-.21,0-.11-.24-.12-.37Z"/>
  <path class="cls-2" d="m24.3,19.26s.01.04.02.06c-.02-.02-.04-.04-.05-.05h.04Z"/>
  <path class="cls-2" d="m24.26,19.27l-.09.02c.02-.05.05-.05.09-.02Z"/>
  <path class="cls-2" d="m24.31,19.32s.09.11.14.13v-.06c.04.07.15.19.11.24-.03-.16-.09-.15-.21-.12l.05.26c-.31.03-.04-.22-.08-.45Z"/>
  <path class="cls-3" d="m24.6,20.1l-.24-.22c.14-.11.21.12.24.22Z"/>
  <path class="cls-2" d="m24.5,20.54c-.07-.05-.12-.31-.15-.13-.04-.03-.05-.08-.06-.14.09.16.24-.05.22.27Z"/>
  <path class="cls-2" d="m24.29,20.27s-.02-.04-.03-.07c.01.02.02.05.03.07Z"/>
  <path class="cls-3" d="m22.83,17.75s-.04.04-.06.03l.06-.03Z"/>
  <path class="cls-2" d="m24.46,21.11l.02.1s-.02-.05-.03-.08v-.02Z"/>
  <path class="cls-2" d="m20.74,13.43c.04.35.07.69.31,1.15.21-.07.11.18.34.15-.16-.5.64,1.88.63,1.45l-.13-.1.26.07c0,.26-.08.64.09.77-.06.06-.56-2.08-.6-1.98.21-.26,1,2.78,1.14,2.83l-.13.07c.24.34.5.53.68.82l-.14.11c0-.25-.14-.28-.27-.5.14.4.06.5.17.81.21-.07.03-.3.26.07-.06.14-.36-.06-.22.28.06.44.35.27.46.64v-.27c.06.13.17.38.09.54-.03-.16-.25-.52-.46-.46.09.15.1.52.15.65l-.17-.04c-.1.19.13.22.06.44.13.16.18-.17.27-.08-.04.05-.03.42.1.52.29-.17-.2-.39.04-.69l.03.34c.36.13-.14-.53.13-.48.39.16-.17.6.3.72.04-.17-.08-.66.04-.63-.07.2.18.27.28.5l-.07.33c.13.1.11,0,.14-.11-.07.47.33,1.13.27,1.78.14.34.15,0,.3.14-.14.24.1.52.15.71,0,.06.22.12.28.04l-.25-.46c.11,0,.25-.12.18-.29-.33.22.04-.75-.38-.68l.19-.04-.29-.6-.02.03c.06-.01-.27-.5-.28-.87.09.08.17.69.28.29.18.23.13.74.33,1.19l.1-.13c.31.45.25,1.17.43,1.7l-.22-.12c-.01.21-.09.5.1.64-.07-.23.06-.14.14-.11.09.15.14.34.19.55.05.2.12.51.13.42,0,0-.04.02-.06.03.04,0,.07-.01.1-.03-.02.03-.11.12-.19.27.02,0,.03.03.1-.1,0-.02.01-.03,0-.02.15-.2-.04.09.05-.04-.12.19-.16.32-.26.57.07,0,.19-.43.25-.52-.05.18-.13.45-.11.63.05-.21.02-.21.08-.43-.01.07,0,.07.02,0l.04-.18c-.06.26-.04.46,0,.3l.02-.15v.04s-.05.53-.05.53c.02-.12,0,.44.03,0v-.05l.02-.16-.05.55c0,.33.08-.72.08-.78,0,0,0,0,0,0,0,.24,0,.38,0,.49-.01.24-.03.05-.08.84,0,.22.03.52.04.24,0-.33,0-.36,0-.4.02-.18.03-.15.04-.07.02-.02.05.02.05-.61l-.02-.32c0-.12.06.92.04.3l.02,1.1c.02-.64.06-.67.05-1.08-.06-.49-.03.11-.04.02l-.03-.41c.06.2.03.3.12.4l-.05-.28c.1.35-.04-.5.11.19l-.05-.11.07.3v-.4c.07.2.09.03.17.28-.02-.1-.04-.2-.06-.28.17.21.11.55.2.84.06.15.08.05.08-.01.03.47-.22-.04-.26.08l.04.36-.09-.39c0,.13.03.46.05.66-.15-.42-.1.51-.21.69.04-.54-.08-.39-.07-.59-.01.04-.03.39-.06.68-.03.28-.06.49-.08.13-.02-.27.04-.61,0-.63-.01.08-.02.21-.03.37,0,.12-.01.29,0,.49v.03s0,0,0,0c-.07-.05-.15-.51-.22-.76l.05-.3c0-.44-.09-.09-.18.14.01-.15,0-.07.03-.23.04-.69-.19.32-.29-.26-.1.33-.04.61.04.59l-.11.38c.12.5.29.97.41.95l-.08.28c.03,1.19.12-.59.14.72.07,0-.03-.51.03-.63.03.35-.07,1.12,0,1.48-.34-.87-.73-2.41-1.1-3.7-.03.02-.03.11-.02.2-.08-.04-.18-.39-.28-.85-.04-.22-.09-.48-.15-.75-.04-.22-.07-.45-.11-.67-.14-.85-.3-1.66-.57-1.64.06-.08.19.08.12-.15-.04-.01-.11-.06-.17.02.13-.67-.38-1.38-.39-2.15-.08.04-.17-.11-.24-.09.14-.3-.19-.66-.13-.92l-.08.1-.19-.72s-.02.09-.02.15c-.09-.15.01-.21.1-.25l-.3-.26c.11-1.04-.76-2.06-.82-3.21-.22-.12-.32-.24-.42-.51l-.02.15c-.22-.24.08-.04-.05-.26-.15-.13-.27.02-.12.21-.02.15-.1.08-.17,0-.21-.88-.31-1.72-.18-2.51Z"/>
  <path class="cls-2" d="m32.05,16.22c-.11.07.04-.39-.2-.22-.55.62-.63,1.88-1.15,2.65-.2.19-.22.25-.35.43.03.01.06.02.1.02-.08.23-.14.62-.3.83.02.08.14.17.14.03.01.39-.43.54-.38.77.14-.15.08.21.21.02-.09.38-.56.2-.7.48.03.03.06.06.09,0-.3.26-.17,1.02-.52.95l.1.17c-.15.11-.21.05-.33.27,0,.17.13.03.16.1-.15.02-.21.45-.46.58-.21-.05.38-.25.25-.49-.04-.02-.06,0-.08.04.34-.96,1.15-1.52,1.23-2.37.2-.13.1-.31-.02-.43-.11.12-.37.49-.08.59l-.26.19c-.01.1-.31,0-.37.04.09-.17-.14-.45-.32-.24.1-.47.58.33.63-.1l-.19-.12c.09.11.29-.21.26-.37l-.06.04c.42-1.06.76-2.55,1.05-3.78.61-.14.08-.94.59-1.09-.03-.15-.24.13-.23-.14,0-.14.15-.11.18-.09v-.13c.53.06.92.42,1.02,1.34Z"/>
  <path class="cls-2" d="m37.87,34.88c-.07-.16-.16-.3-.25-.42-.02-.76-.53-1.02-.65-1.78-.19-.66-.4-1.1-.49-1.76-.44-.1-.27-1.25-.65-1.65-.13-.3-.33-.43-.33-.17-.13-.43.06-.37-.1-.71l.16.09c0-.13.03-.28-.04-.43l-.18-.14c.03-.47-.3-.65-.34-1.14-.01.33-.12-.12-.21-.06.03-.09-.02-.38.05-.29-.07-.41-.4-.71-.27-.99l-.1-.13c-.15-.23-.1-.45-.14-.69h-.08c-.08-.15-.15-.43-.12-.58-.07-.41-.37-.86-.57-1.25-.04-.43-.2-.19-.35-.55-.02-.25-.23-.63-.17-.8.1.32.31.31.37.67.03-.15.23.56.25.23-.35-.62-.42-1.48-.75-2.04.21,0-.09-.79-.19-1.05l.05-.03c-.03-.24-.07-.41-.24-.76-.13-.43-.29-.85-.27-1.25,0-.58-.4-1.16-.6-1.36,0,.71.47,1.25.28,1.83-.07-.47-.15-.49-.35-.81v.2s-.1-.14-.1-.14c-.05.1-.16-.09-.23-.04l.15.55c-.02-.31.11-.14.21-.07l.05.29c.02-.08,0-.26.1-.06.02.12.1.26.08.4l-.21-.18c.22.31-.01.66.2.97l-.13.15.1.32-.07-.02.08.4c.08.2.17.22.23.24.05.16.12.31.1.39l-.15-.16.02.18c0-.13.1.13.15.16.09.4.07.28.05.55.13.24.1.58.23.56.05.49.19.98.31,1.42l.13.17c.05.55.24.75.4,1.29l-.05-.03.18.27c.04.43.27.54.29,1.05.09.53.28.72.5.84.15.23.12.57.17.8l-.1-.13v.2c.1.31.05.35.24.74.09.59.33.43.5.65v.59s.02-.02.02-.02c.28.27.15.23.37.99l.1-.06c-.05.29.15.36.23.69.05.16,0,.71.22.96.05.61.45.81.57,1.32,0,.32.25.49.09.59l-.02-.05-.15.16.13-.02c0,.19.12.44.02.64l.35.36c-.05-.1-.07-.22-.08-.33l-.03.02c-.03-.11-.13-.37-.12-.51l.08.14c-.02-.18.08-.05.11,0,.04.37.13.24.23.5,0,.06.02.18-.03.15.07.15.09.59.22.57,0,.02,0,.02,0,.04.21-.11.38-.35.53-.64Z"/>
  <g>
    <path class="cls-1" d="m22.73,17.16c.36.65.86,2.16.57,2.21q.29-.05.78.94c-.19.03.12.95.31,1.54,0-.53-.17-1.21-.51-2.57-.75-1.12-.86-3.84-1.63-4.87.14.86.09,1.76.48,2.75Z"/>
    <path class="cls-1" d="m23.07,23.03l.16.15-.78-2.08c.21.41.73,1.83.62,1.93Z"/>
    <path class="cls-2" d="m25.23,29.52c-.16.2.1,1.58.03,2.05.07-.52.21-.13.36.51.16.64.36,1.61.5,2.04l.06-.43.05-.7s-.03,0-.05.03c-.13-.81-.32-1.56-.53-2.35-.22-.78-.46-1.65-.69-2.46l.26,1.3Z"/>
    <path class="cls-1" d="m25.63,31.8c.08.02.15.01.22,0-.14-.29-.49-1.41-.22,0Z"/>
    <path class="cls-1" d="m25.73,27.95c-.1-.41-.09-.23-.07-.01.01.21.03.49-.12.1.12.21.21.48.19-.09Z"/>
    <path class="cls-2" d="m26.9,29.54l-.7,3.02-.04-.11.04.19.32-.65c.15-.9.28-1.72.39-2.46Z"/>
    <path class="cls-2" d="m27.23,30.92c-.14.49-.38.88-.24-.03.22-.28.36-.88.47-1.4.12-.54.22-1.02.46-1.47l-.24,1.26c.1.13.24-.61.37-1.22.13-.62.26-1.15.47-.99.08-.92-.11-.6-.25-.44-.15.19-.25.25-.12-.63-.37,1.62-.8,2.76-1.18,3.78.14-.15.18-.34.38-.73-.25.95-.58,2.64-.93,3.99.11.19.24-.23.36-.72.13-.5.26-1.05.45-1.41Z"/>
    <path class="cls-2" d="m28.9,25.28c.17-.54.37-1.24.5-1.85.11-.53.15-1.02.05-1.32-.27.48-.37.88-.38,1.16-.01.28.05.49.05.77-.15.32-.49,1.41-.55.91.12-.14.06.78.33.32Z"/>
    <path class="cls-2" d="m30.06,21.43c0-.37,0-.77,0-1.22l-.11.58-.16-.29c0,.21.17,1.15-.09,1.99.27-.31.15-.67.35-1.07Z"/>
    <path class="cls-2" d="m29.13,18.81c.42-.89.53-1.64.88-3.21-.51,1.92-1.26,4.54-1.31,5.19v-.2s-.08.44-.19,1.07c-.04.29-.09.61-.14.96-.02.15-.04.31-.05.47v.33c0-.26.14-.82.28-1.32.14-.51.28-1.03.4-1.48.24-.9.38-1.64.13-1.82Z"/>
    <path class="cls-2" d="m28.44,21.14l.25-1.58-.25,1.58Z"/>
    <path class="cls-2" d="m30.83,18.43l-.45,1.21c.05-.05.1-.1.14-.14l.31-1.07Z"/>
    <path class="cls-2" d="m29.88,18.18c.26-.82.17-.73.06-.62-.1.11-.22.26.03-.63.12-.57-.75,2.68-.68,2.99.15-.32.4-2.08.58-1.74Z"/>
    <path class="cls-2" d="m31.1,17.84c.13.12.27.28.43.5-.16-.22-.3-.38-.43-.5Z"/>
    <path class="cls-2" d="m32.02,20.97c.05-.03.1-.05.16-.07.15.67.38,1.25.59,1.87.18.55.42,1.33.4,1.85.13-.29.61.4.27-.77-.17-.14-.31-.56-.42-.45-.11-.46.06-.43,0-.78-.22-.35-.39-.81-.56-1.28-.17-.46-.33-.91-.46-1.04.11.22.12.36.18.61-.28-.35-.34-.86-.42-1.35-.07-.46-.14-.86-.27-.47.08.01.18.44.27.85.09.43.16.84.27,1.03Z"/>
    <path class="cls-2" d="m32.51,18.77l-.5-1.67c.24-.01.66,1.89.85,1.8.04-.29-.54-2.19-.28-1.73-.28.86-.82-2.3-.68-.03-.68-1.75-.15-1.47-.93-3.63l-.02.03-.13,1.39c.05-.23.1-.44.15-.62.32.81.53,1.51.73,2.19.21.69.42,1.34.81,2.28Z"/>
    <path class="cls-2" d="m34.31,24.27l.03.62.13-.39c.93,2.57.47,4.42,1.14,5.94.49.91.78,1.86,1.03,2.83.24.93.38,1.68.7,2.54h-.02c-.27.1-.1.14.24.16-.08-.31-.26-.87-.19-.89.47.39.28.68.37,1.01-.16,0-.26.02-.28.11.07.09.32.15.72.2-.06-.58-.53-2.09-.66-2.89-.19-.5-.28-.64-.37-.74-.09-.1-.17-.13-.29-.22.1-.24-.11-1.02-.01-1.26-.76-1.47-.61-2.43-1.38-3.87.06-.55.44,1.13.3.61l-.29-.83v.1c-.62-1.05-1.13-3.21-1.23-3.99.12.6.07,1.06-.23.41l.07-.64c-.32-.53-.67-1.12-.95-1.54.32.51.55,1.38.66,1.84.13.5.25.87.53.9Z"/>
    <path class="cls-2" d="m34.16,22.33c-.39-1.35-.44-1.2-.51-1.06-.07.12-.14.24-.54-1.12l.96,2.72c.03-.17.06-.35.08-.55Z"/>
    <path class="cls-1" d="m36.43,31l.12.92c.2-.59-.74-1.77-.12-.92Z"/>
    <path class="cls-1" d="m37.58,34.36c-.19-.2-.38-.37-.55-.52l.52.89.03-.37Z"/>
    <path class="cls-2" d="m36.6,36.1c-.56.19.41.32,1.28.27-.83,0-1.35-.15-1.28-.27Z"/>
    <path class="cls-1" d="m31.59,35.49c1.53-.02-1.36-.07-.26-.4-.2.15-.97.36.26.4Z"/>
    <path class="cls-2" d="m26.61,34.72c.55-.07.78-.01.86.07-.4,0-.72-.02-.86-.07Z"/>
    <path class="cls-2" d="m34.72,28.65c-.06-.17-.12-.35-.17-.51.06.17.11.34.17.51Z"/>
    <path class="cls-2" d="m34.83,28.99l-.11-.33c.04.13.08.24.11.33Z"/>
    <path class="cls-2" d="m34.01,34.95h0s.07.02.12.03l-.13-.03Z"/>
    <path class="cls-2" d="m24.18,27.52c-.11-.31-.18-.56-.24-.77.08.25.16.51.24.75,0,0,0,.01,0,.01Z"/>
    <path class="cls-2" d="m24.37,26.41c.25.49.21.83.23,1.39,0,.54.08,1.35.43,2.28-.27-.76-.55-1.63-.85-2.57-.03-.76.08-.52.16-.41.08.14.12.14.03-.7Z"/>
    <path class="cls-2" d="m28.24,24.14s0-.04,0-.07c.02-.12.02-.06,0,.07Z"/>
    <polygon class="cls-1" points="7.66 24.92 7.57 24.96 7.29 23.92 7.66 24.92"/>
    <path class="cls-1" d="m7.55,25.13l.53,1.83-2.13-5.29-1.28,2.94.02-.37c-.08,0,.57-1.48,1.27-3.02.77,1.99,1.57,4.08,1.6,3.92Z"/>
    <path class="cls-1" d="m7.88,25.56c.39.44.52.88.66,1.35.13.45.3,1.07.66,1.59-.23-.34-.47-.66-.69-1.04-.22-.39-.37-.69-.49-1.12l-.14-.77Z"/>
    <path class="cls-3" d="m9.8,28.29c.13.54.4.76.46,1.09-.16.44-.36-.72-.46-1.09Z"/>
    <path class="cls-2" d="m10.61,27.17s.02.02.02.05c-.01.02-.03.04-.04.06l.02-.1Z"/>
    <path class="cls-2" d="m10.59,27.27l-.05.26c0-.16.02-.21.05-.26Z"/>
    <path class="cls-2" d="m10.63,27.21s.06-.1.07-.21v-.08s.04-.28.05-.06c-.02-.12-.03.12-.06.58l.09.3c0,.64-.03.53-.07.26-.04-.28-.06-.67-.09-.79Z"/>
    <path class="cls-3" d="m10.85,27.15c0,.28,0,.6-.02.97,0-.08,0-.15-.01-.22,0-.02,0-.04,0-.06-.02-.51.02-.64.03-.69Z"/>
    <path class="cls-2" d="m11.08,27.42c.02.2-.11.53.01.55,0,.17-.03.24-.05.32.06-.43-.14-.83.04-.87Z"/>
    <path class="cls-2" d="m11.03,28.29c0,.05-.02.1-.03.15,0-.07.02-.12.03-.15Z"/>
    <path class="cls-3" d="m7.23,22.81c.04.19.01.22-.03.2l.03-.2Z"/>
    <path class="cls-2" d="m11.51,26.98l.06-.17c-.02.05-.02.1-.03.15l-.02.02Z"/>
    <path class="cls-2" d="m0,36.57c.69-1.37,1.36-2.66,2.1-4.75-.32-.09.28-.85.01-1.11-.44,1.06.38-.94,1.21-2.99.4-1,.85-2.13,1.06-2.7.19-.54.28-.85.1-.53l-.06.5c-.04-.2-.07-.42-.08-.67.24-.43.53-.86.75-1.23.23-.38.4-.73.52-1.23.02.02-.17.48-.45,1.14-.29.66-.68,1.56-1.07,2.45-.94,2.12-1.87,4.23-1.75,4.08-.25.21.27-1.17,1.05-3.09.79-1.9,1.8-4.32,2.58-6.19.64,1.52,1.15,2.72,1.23,2.76l-.07.4c.41.67.77,1.27,1.12,1.84.35.56.7,1.14,1.01,1.72-.05.11-.09.23-.13.36-.12-.41-.28-.76-.44-1.04-.17-.29-.36-.58-.6-1.06.73,1.71.7,2.08,1.25,3.32.19-.41-.26-1.11.4.07.1.62-.52.03.1,1.42.71,2.02.66.58,1.14,1.72l-.33-1.17c.08.19.2.42.31.71.1-.33.2-.59.3-.59-.07.2-.17.64-.28,1.18-.18-.24-.39-.38-.4.12.11.2.27.62.45,1.09.19-.57.41-1.17.52-1.55l-.04.94c.15-.11.23-.49.32-.88.09-.39.17-.77.37-1.09.1-.56,0-.53-.09-.49-.1.05-.2.13-.16-.17.08.01.66-1.48.7-2.13-.26.03-.35.43-.47.97-.12.52-.29,1.22-.53,1.2l.43-1.13c-.05-.67-.19-.19-.33.32-.14.52-.3,1.13-.32.54,0-.89.15-.96.35-1.24.18-.24.4-.68.23-1.22-.24.38-.62,1.6-.66,1.12.11-.04.14-.31.15-.58,0-.28-.01-.55.03-.79.06-.06.12-.13.18-.22.03-.05.06-.07.1-.14l.15-.29c.01-.57-.12-.15-.34.24.82-1.74,1.43-4.9,2.53-7.37.39-1.54-.14-.25-.1-.99.53-.72.71-2.17.97-3.01.1-.24-.04-.78-.23-.57l-.47,2.18c-.12-.15-.45.09-.65.86.7-.36-1.23,2.89-.67,3.23l-.27-.11-.63,2.77.06-.07s-.17.57-.36,1.35c-.16.7-.51,2.01-.55,1.91-.01-.05,0-.11.01-.19.06-.24.13-.5.19-.72.13-.5.16-.78-.22-.08.18-1.16,1.03-3.08,1.52-5.14l-.31.34c.19-1.11.58-2.34,1.01-3.59.22-.63.43-1.26.65-1.88.1-.31.2-.62.3-.93.13-.43.25-.84.37-1.25l-.08.72.02.4c.04-.1.09-.2.14-.31.07-.19.15-.38.22-.58.15-.4.3-.8.44-1.19.28-.79.51-1.57.65-2.42-.53,1.82-.37.74-.34.24.34-1.37.83-3,1.36-4.7.53-1.71,1.07-3.47,1.61-5.43l.03.1s-.05.03,0,.32l1.1,3.29c.51,1.95.62,2.92.82,4.27.19.55.63,2.11.56,1.29-.09-.37-.18-.74-.25-.94.35.71.44,1.11.53,1.54.09.45.17.93.58,2.05-.36-.83-.38-.57-.36-.17.02.41.09.96-.05.94.39,1.17.52,1.21.56.94.04-.26,0-.86.09-.72.1.42.19.8.27,1.15.03.18.05.35.08.5.04.3.07.57.11.83.07.52.14,1.04.37,1.93.18.06-.26-1.28-.13-1.48.1.51.29,1.1.37,1.18l-.19-1.12c.34,1.89.8,3.68,1.5,5.69l.03-.18.35,1.27-.41-.38c.26.66.23,1.47.55,1.77l-.05-.26.33.83-.52-.8c.05.28.15.57.27.89.07.15.14.31.21.48.04.08.08.17.12.25.04.08.09.21.1.19.17.12.28.04.29.14-.11.31-.17.24-.26.09l-.08-.11-.05-.06s-.03-.02-.07-.13c-.15-.33-.3-.57-.43-.59.03.15.06.33.09.52l.05.27.02.12c.03.16.09.31.16.32.1-.14.07-.27.03-.42.19.19.22.44.29.75.06.28.15.58.25.11,0-.22,0-.41,0-.57.03.02,0,.38.02.73,0,.34.03.65.06.23-.04.47-.1.86-.19,1.16.1-.03.17.04.24.13.09-.5.17-.89.19-1.37-.05-.36-.07-.27-.09-.08-.02.19-.05.5-.05.39v-.79c.07.09.1.15.12.22.03.06.06.13.21-.09l-.11-.33c.11.15.13-.19.14-.34,0-.15.02-.25.21.03-.05.05-.11.08-.15.1l.18.21.08-.56.3-1.36c.09.32.43-1.05.54-.62l.05-.55.02-.27.07-.43c.26-.32.11.58.07,1.05-.07.57-.17,1.22-.07,1.31.16,0,.28-.49.32-.73-.06.66-.27,1.1-.51,1.54-.13.25-.23.36-.32.49-.09.13-.16.26-.22.43.02.18.04.37.05.59l-.2-.35c-.03.32,0,.87.04,1.2-.23.09-.31.45-.42,1.06-.11.59-.25,1.47-.44,1.96.17-.94.07-.86-.01-.81-.06-.39-.12-.74-.1-.78-.06-.22-.19-.22-.35-.47-.15-.23-.32-.69-.28-1.2,0-.49.26.17.13-.53-.12-.28-.31-.43-.33.04-.09-.24-.18-.51-.27-.8-.1-.35-.2-.72-.31-1.08-.26-.95-.53-1.92-.79-2.86l.31.39c-.17-1.21-.75-2.27-1.12-2.83.03-.18-.05-.26.11-.11-.11-1.57-.92-1.8-1.54-4.26-.22.21.06,1.32.41,2.05l-.35-.12c.59,2.12,1.32,4.47,1.98,6.14l-.44-.73c.02,1.59.68.95.62,2.47.4,1-.06-.79.29-.05.06.38-.08.37-.2.41-.11.06-.22.12-.02.84-.36-1.16-.73-2.36-1.1-3.58-.36-1.2-.72-2.43-1.08-3.66-.66-2.28-1.33-4.57-1.97-6.78-.06.01-.01.24.02.44-.23-.26-.56-1.6-1.06-3.67-.47,1.28-1.12,3.08-1.64,4.72-.14.46-.27.89-.39,1.28-.12.42-.22.8-.29,1.12-.15.64-.19,1.07-.09,1.18-.18.2-.08-.6-.37.41.03.11.02.39.21.19-.6,1.22-1.04,2.71-1.49,4.28-.23.78-.46,1.58-.69,2.38l-.38,1.18c-.14.41-.26.72-.45,1.21.15-.04-.05.87.03.97-.34.59-.6,1.46-.86,2.41-.26.93-.53,1.96-.74,2.37.06,0,.12-.02.18-.04l-.64,2.1-.8-2.02c-.06.01.16.58.3.97-.37-.74-.43-1.35-.43-1.73-.25-.32-.52-.71-.83-1.17-.36-1.18-.72-2.24-1.11-3.29-.17-.44-.34-.89-.52-1.35-.16-.39-.33-.79-.5-1.2-.51-1.15-.94-1.96-1.32-2.79-.32.79-.59,1.4-.97,2.03,0,.32.01.53,0,.73-.07.32-.25.82-.48,1.37l.32-.52c-.3,1.24-.15.01-.49,1.03-.14.73.28.37.54-.59.33-.53.26-.14.15.29-1.61,3.57-3.25,6.83-4.99,9.54Z"/>
    <path class="cls-2" d="m12.95,34.24c.43.12-1.68.13-.65.39,3.28.48,8.6,0,12.49.36,1.04.19,1.31.19,2.25.29.02-.04.02-.1-.03-.15,1.06,0,2.77-.1,3.82.02.3-.06.52-.27-.06-.22,1.6-.2,2.78.35,3.68.18-.78-.13.77-.21-.16-.31.51-.01.49.03.65.09.12.07.25.16.4.25.29.19.66.39,1.22.43,0-.06-.02-.12-.23-.13.19.04.39.07.6.08-.11-.49-.41-1.21-.6-1.73-.04-.13-.09-.26-.12-.38-.05-.16-.09-.3-.11-.43-.05-.25-.04-.43.05-.5l-.4-.48c-.05-.66.12-.55-.16-1.58-.3-.63-.17.09-.33-.13.1-.35-.59-2.07-.59-2.97.3-.15.07,1.57.63,2.27.07,0,.05-.12,0-.28.42,1.28.72,2.5.99,3.66.26,1.12.33,1.78.42,2.39-.56-.06-1.03-.11-1.45-.13-.23,0-.38-.01-.65,0-.35,0-.7.03-1.05.05-.8-.22-1.41,0-1.76.23.66.1,2.52.29,2.56-.17.43.09.6.19.96.29.31-.03.57.43.81.51-.41-.02-.8.08-.99.21-.19.13-.15.28.56.36-1.35.04-1.07-.2-.89-.44.1-.12.18-.24.14-.32-.05-.08-.18-.12-.65-.08l-.27.34c.35-.18-1.26-.32-1.86-.2l.25.06c-4.96-.09-11.57.14-17.05.32-1.36-.81-4.02.34-5.29-.31-.6.12.86.28-.29.4-.58.06-.63-.16-.61-.22-.17.02-.35.05-.53.07-.43-.8.57-1.52,4.3-2.1Z"/>
  </g>
</svg>