<?xml version="1.0" encoding="UTF-8"?>
<svg id="_图层_1" data-name="图层 1" xmlns="http://www.w3.org/2000/svg" viewBox="0 0 390.29 383.08">
  <path d="m314.72,149.44c10.16,10.14,19.38,19.35,28.59,28.55,4.67,4.67,9.37,9.31,13.99,14.01,3.22,3.27,3.77,6.97,1.55,9.36-2.4,2.57-6.2,2.13-9.65-1.32-22.63-22.59-45.36-45.09-67.73-67.94-3.71-3.79-7.24-4.41-11.96-3.88-15.09,1.72-30.21,3.17-45.32,4.78-3.44.36-6.85.91-10.35,1.39.31,1.93,1.85,2.72,2.93,3.8,29.64,29.69,59.32,59.35,88.98,89.02,6.01,6.01,6.04,8.31.15,14.2-45.85,45.85-91.7,91.7-137.55,137.54-5.52,5.51-8.03,5.51-13.58-.03-50.21-50.2-100.42-100.4-150.63-150.6-5.54-5.54-5.53-8.03.02-13.58,45.95-45.95,91.9-91.9,137.86-137.85,5.34-5.34,8-5.37,13.26-.11,14.64,14.61,29.29,29.22,43.85,43.9,2.21,2.23,4.16,3.11,7.6,2.69,17.11-2.09,34.29-3.64,51.45-5.42,2.18-.23,4.33-.68,6.56-1.04.05-2.21-1.78-3-2.93-4.15-25.8-25.86-51.64-51.68-77.46-77.52-1.24-1.24-2.56-2.47-3.49-3.93-1.52-2.41-1.85-5.03.36-7.27,2.23-2.26,4.84-1.81,7.27-.38,1.24.72,2.27,1.83,3.3,2.86,15.16,15.13,30.29,30.29,45.46,45.41,1.09,1.09,1.9,2.64,3.2,2.85,0-17.35.01-34.71,0-52.07,0-5.41-.02-10.82-.17-16.23-.1-3.57.98-6.13,4.9-6.45,3.55-.29,6.58,2.44,6.64,6.14.17,11.27.15,22.54.28,33.81.17,15.05.44,30.09.61,45.14.02,1.94.95,3.28,2.24,4.57,15.26,15.23,30.52,30.47,45.74,45.75,1.59,1.59,3.32,2.07,5.51,2.09,18.41.17,36.82.45,55.23.68,7.02.09,14.04.19,21.06.16,4.72-.02,7.96,2.55,7.77,6.45-.16,3.36-3.32,5.31-7.74,5.25-17.69-.27-35.38-.43-53.06-.61-4.5-.05-9.01,0-14.77,0Zm-166-60.03c-1.09.99-2.07,1.82-2.98,2.73-14.83,14.81-29.58,29.71-44.55,44.39-2.7,2.64-2.39,3.96.12,6.46,38.44,38.27,76.77,76.65,115.13,115,8.19,8.19,16.44,16.32,24.53,24.6,1.88,1.92,2.93,1.99,4.86.04,15.16-15.32,30.41-30.54,45.7-45.72,1.76-1.75,2.31-2.78.22-4.86-46.92-46.79-93.76-93.65-140.62-140.5-.71-.71-1.5-1.33-2.41-2.13Zm-88.16,88.07c-.94.87-1.82,1.63-2.64,2.46-12.87,12.85-25.66,25.77-38.64,38.51-2.41,2.37-2.56,3.65-.05,6.15,46.54,46.37,92.99,92.83,139.38,139.35,2.26,2.27,3.45,2.52,5.84.09,12.62-12.88,25.37-25.65,38.27-38.25,2.72-2.66,2.85-3.99.04-6.78-46.35-46.14-92.57-92.41-138.82-138.66-.62-.62-1.22-1.27-1.88-1.85-.42-.37-.94-.64-1.49-1.01Z"/>
</svg>